<svg xmlns="http://www.w3.org/2000/svg" viewBox="0 0 200 200">
  <!-- Background -->
  <circle cx="100" cy="100" r="90" fill="#f2f2f2"/>
  
  <!-- FPT Orange Uniform -->
  <path d="M60,100 L60,160 C60,170 80,180 100,180 C120,180 140,170 140,160 L140,100 Z" fill="#ff5e00"/>
  <path d="M60,110 L140,110" stroke="white" stroke-width="2"/>
  
  <!-- FPT Logo -->
  <text x="95" y="140" font-family="Arial" font-size="16" font-weight="bold" fill="white" text-anchor="middle">FPT</text>
  
  <!-- Head -->
  <circle cx="100" cy="70" r="40" fill="#ffdbac"/>
  
  <!-- Hair - Black Ponytail -->
  <path d="M100,30 C70,30 65,60 65,75 C60,80 60,70 60,70 C60,40 75,20 100,20 C125,20 140,40 140,70 C140,70 140,80 135,75 C135,60 130,30 100,30 Z" fill="#2d2d2d"/>
  <!-- Ponytail -->
  <path d="M120,60 C140,70 150,90 150,110 C150,115 145,120 140,120" fill="none" stroke="#2d2d2d" stroke-width="10" stroke-linecap="round"/>
  <!-- Hair tie -->
  <circle cx="120" cy="60" r="8" fill="#e74c3c"/>
  
  <!-- Eyes -->
  <ellipse cx="85" cy="65" rx="5" ry="6" fill="#2d2d2d"/>
  <ellipse cx="115" cy="65" rx="5" ry="6" fill="#2d2d2d"/>
  <!-- Eyelashes -->
  <line x1="80" y1="60" x2="75" y2="58" stroke="#2d2d2d" stroke-width="1"/>
  <line x1="85" y1="59" x2="85" y2="55" stroke="#2d2d2d" stroke-width="1"/>
  <line x1="90" y1="60" x2="95" y2="58" stroke="#2d2d2d" stroke-width="1"/>
  <line x1="110" y1="60" x2="105" y2="58" stroke="#2d2d2d" stroke-width="1"/>
  <line x1="115" y1="59" x2="115" y2="55" stroke="#2d2d2d" stroke-width="1"/>
  <line x1="120" y1="60" x2="125" y2="58" stroke="#2d2d2d" stroke-width="1"/>
  
  <!-- Smile -->
  <path d="M85,80 C90,88 110,88 115,80" fill="none" stroke="#2d2d2d" stroke-width="2" stroke-linecap="round"/>
  
  <!-- Blush -->
  <circle cx="75" cy="75" r="5" fill="#ff9999" opacity="0.5"/>
  <circle cx="125" cy="75" r="5" fill="#ff9999" opacity="0.5"/>
  
  <!-- Medical Clipboard - Medical element -->
  <rect x="65" y="115" width="30" height="40" rx="2" ry="2" fill="#ecf0f1" stroke="#bdc3c7" stroke-width="1"/>
  <!-- Clipboard top -->
  <rect x="75" y="112" width="10" height="5" rx="2" ry="2" fill="#bdc3c7"/>
  <!-- Clipboard content lines -->
  <line x1="70" y1="125" x2="90" y2="125" stroke="#7f8c8d" stroke-width="1"/>
  <line x1="70" y1="130" x2="85" y2="130" stroke="#7f8c8d" stroke-width="1"/>
  <line x1="70" y1="135" x2="90" y2="135" stroke="#7f8c8d" stroke-width="1"/>
  <line x1="70" y1="140" x2="85" y2="140" stroke="#7f8c8d" stroke-width="1"/>
  <line x1="70" y1="145" x2="90" y2="145" stroke="#7f8c8d" stroke-width="1"/>
  <!-- Medical symbol on clipboard -->
  <path d="M75,120 L85,120 M80,115 L80,125" stroke="#e74c3c" stroke-width="2"/>
  
  <!-- Ears -->
  <path d="M60,70 Q55,70 58,80" fill="#ffdbac"/>
  <path d="M140,70 Q145,70 142,80" fill="#ffdbac"/>
</svg> 